<?xml version="1.0" encoding="utf-8"?>
<!-- Generator: Adobe Illustrator 22.1.0, SVG Export Plug-In . SVG Version: 6.00 Build 0)  -->
<svg version="1.1" id="Capa_1" xmlns="http://www.w3.org/2000/svg" xmlns:xlink="http://www.w3.org/1999/xlink" x="0px" y="0px"
	 viewBox="0 0 841.9 595.3" style="enable-background:new 0 0 841.9 595.3;" xml:space="preserve">
<g>
	<path fill="#f5801f" d="M700.1,154.6l-28.3-28.3c-9.8-9.3-21.2-13.9-34.3-13.9c-13.3,0-24.6,4.6-33.9,13.9L420.4,309.5L237.2,126.3
		c-9.3-9.3-20.6-13.9-33.9-13.9c-13.1,0-24.5,4.6-34.3,13.9l-27.9,28.3c-9.5,9.5-14.3,21-14.3,34.3c0,13.6,4.8,24.9,14.3,33.9
		l245.3,245.4c9,9.5,20.3,14.3,33.9,14.3c13.3,0,24.8-4.8,34.3-14.3l245.4-245.4c9.3-9.3,13.9-20.6,13.9-33.9
		C714,175.8,709.3,164.4,700.1,154.6z"/>
</g>
</svg>
